<svg width="48" height="40" viewBox="0 0 48 40" fill="none" xmlns="http://www.w3.org/2000/svg">
<path d="M0 10C0 4.47715 4.47715 0 10 0H38C43.5228 0 48 4.47715 48 10V30C48 35.5228 43.5228 40 38 40H10C4.47715 40 0 35.5228 0 30V10Z" fill="#00E5FF"/>
<rect x="2.64" y="12.6829" width="42.72" height="24.3902" rx="7" fill="#121212"/>
<rect x="7.92" y="16.0976" width="32.16" height="23.9024" fill="#121212"/>
<path d="M17.6866 32.6915C17.481 33.0319 17.4179 33.442 17.5113 33.8315C17.6046 34.2211 17.8468 34.5582 18.1845 34.7688C18.5223 34.9793 18.9278 35.046 19.3121 34.9542C19.6963 34.8625 20.0277 34.6197 20.2334 34.2793C20.2334 34.2793 20.2334 34.2793 20.2334 34.2793C20.3767 34.0421 20.5201 33.8048 20.6634 33.5676C21.9536 31.4324 23.2438 29.2972 24.534 27.162C25.8242 25.0268 27.1144 22.8916 28.4047 20.7564C28.548 20.5191 28.6914 20.2819 28.8347 20.0446C29.0404 19.7043 29.1035 19.2942 29.0101 18.9047C28.9167 18.5151 28.6745 18.178 28.3368 17.9674C27.9991 17.7569 27.5935 17.6901 27.2093 17.7819C26.8251 17.8737 26.4937 18.1165 26.288 18.4569C26.288 18.4569 26.288 18.4569 26.288 18.4569C26.1447 18.6941 26.0013 18.9314 25.8579 19.1686C24.5677 21.3038 23.2775 23.439 21.9873 25.5742C20.6971 27.7094 19.4069 29.8446 18.1167 31.9798C17.9734 32.2171 17.83 32.4543 17.6866 32.6915Z" fill="#00E5FF"/>
<path d="M31.3758 29.9833C31.0895 30.2594 30.923 30.6397 30.9127 31.0406C30.9024 31.4415 31.0492 31.8301 31.3209 32.121C31.5925 32.4118 31.9667 32.5811 32.3612 32.5916C32.7557 32.602 33.1381 32.4528 33.4243 32.1767C33.4243 32.1767 33.4243 32.1767 33.4243 32.1767C33.504 32.0998 33.5838 32.0229 33.6635 31.946C34.3812 31.2538 35.0988 30.5615 35.8165 29.8693C36.5342 29.177 37.2518 28.4848 37.9695 27.7926C38.0492 27.7156 38.129 27.6387 38.2087 27.5618C38.4949 27.2857 38.6615 26.9054 38.6718 26.5046C38.6821 26.1037 38.5353 25.715 38.2636 25.4242C37.992 25.1333 37.6177 24.964 37.2233 24.9536C36.8288 24.9431 36.4464 25.0923 36.1602 25.3684C36.1602 25.3684 36.1602 25.3684 36.1602 25.3684C36.0804 25.4453 36.0007 25.5222 35.921 25.5992C35.2033 26.2914 34.4856 26.9836 33.768 27.6759C33.0503 28.3681 32.3326 29.0603 31.615 29.7526C31.5352 29.8295 31.4555 29.9064 31.3758 29.9833Z" fill="#00E5FF"/>
<path d="M33.6009 20.4225C33.3292 20.1316 32.955 19.9624 32.5605 19.9519C32.166 19.9414 31.7836 20.0906 31.4974 20.3667C31.2112 20.6428 31.0446 21.0231 31.0343 21.424C31.0241 21.8249 31.1709 22.2135 31.4425 22.5043C31.4425 22.5043 31.4425 22.5043 31.4425 22.5043C31.5182 22.5854 31.5939 22.6664 31.6696 22.7475C32.3508 23.4768 33.0319 24.2061 33.7131 24.9355C34.3942 25.6648 35.0754 26.3941 35.7566 27.1235C35.8323 27.2045 35.9079 27.2855 35.9836 27.3666C36.2553 27.6574 36.6295 27.8267 37.024 27.8372C37.4184 27.8476 37.8008 27.6984 38.0871 27.4224C38.3733 27.1463 38.5398 26.766 38.5501 26.3651C38.5604 25.9642 38.4136 25.5756 38.1419 25.2847C38.1419 25.2847 38.1419 25.2847 38.1419 25.2847C38.0663 25.2037 37.9906 25.1226 37.9149 25.0416C37.2337 24.3123 36.5526 23.5829 35.8714 22.8536C35.1902 22.1243 34.5091 21.3949 33.8279 20.6656C33.7522 20.5846 33.6765 20.5035 33.6009 20.4225Z" fill="#00E5FF"/>
<path d="M16.1287 22.6838C16.4149 22.4077 16.5815 22.0274 16.5918 21.6265C16.6021 21.2256 16.4552 20.837 16.1836 20.5461C15.9119 20.2553 15.5377 20.086 15.1432 20.0755C14.7488 20.0651 14.3664 20.2143 14.0801 20.4903C14.0801 20.4903 14.0801 20.4903 14.0801 20.4903C14.0004 20.5673 13.9207 20.6442 13.8409 20.7211C13.1233 21.4133 12.4056 22.1056 11.6879 22.7978C10.9703 23.49 10.2526 24.1823 9.53494 24.8745C9.4552 24.9514 9.37546 25.0284 9.29572 25.1053C9.00951 25.3813 8.84293 25.7616 8.83264 26.1625C8.82234 26.5634 8.96917 26.952 9.24083 27.2429C9.51248 27.5338 9.88671 27.703 10.2812 27.7135C10.6756 27.724 11.058 27.5747 11.3443 27.2987C11.3443 27.2987 11.3443 27.2987 11.3443 27.2987C11.424 27.2218 11.5037 27.1448 11.5835 27.0679C12.3011 26.3757 13.0188 25.6835 13.7365 24.9912C14.4541 24.299 15.1718 23.6067 15.8895 22.9145C15.9692 22.8376 16.0489 22.7607 16.1287 22.6838Z" fill="#00E5FF"/>
<path d="M13.9036 32.2288C14.1753 32.5196 14.5495 32.6889 14.9439 32.6994C15.3384 32.7098 15.7208 32.5606 16.007 32.2846C16.2932 32.0085 16.4598 31.6282 16.4701 31.2273C16.4804 30.8264 16.3336 30.4378 16.0619 30.1469C16.0619 30.1469 16.0619 30.1469 16.0619 30.1469C15.9862 30.0659 15.9105 29.9849 15.8349 29.9038C15.1537 29.1745 14.4725 28.4451 13.7914 27.7158C13.1102 26.9865 12.429 26.2571 11.7479 25.5278C11.6722 25.4468 11.5965 25.3657 11.5208 25.2847C11.2492 24.9938 10.875 24.8246 10.4805 24.8141C10.086 24.8036 9.70361 24.9529 9.4174 25.2289C9.13119 25.505 8.96462 25.8853 8.95432 26.2862C8.94403 26.6871 9.09086 27.0757 9.36252 27.3666C9.36252 27.3666 9.36252 27.3666 9.36252 27.3666C9.4382 27.4476 9.51388 27.5286 9.58957 27.6097C10.2707 28.339 10.9519 29.0683 11.6331 29.7977C12.3142 30.527 12.9954 31.2563 13.6765 31.9857C13.7522 32.0667 13.8279 32.1477 13.9036 32.2288Z" fill="#00E5FF"/>
<rect x="38.16" y="3.41463" width="3.36" height="3.41463" rx="1.68" fill="#121212"/>
<rect x="27.6" y="3.41463" width="3.36" height="3.41463" rx="1.68" fill="#121212"/>
<rect x="32.88" y="3.41463" width="3.36" height="3.41463" rx="1.68" fill="#121212"/>
</svg>
